<?xml version="1.0" ?><svg id="Layer_1_1_" style="enable-background:new 0 0 64 64;" version="1.1" viewBox="0 0 64 64" xml:space="preserve" xmlns="http://www.w3.org/2000/svg" xmlns:xlink="http://www.w3.org/1999/xlink"><path d="M61.672,55.257l-5.285-5.284l1.864-1.864l-1.414-1.414l-1.864,1.864l-1.919-1.919  C54.294,44.368,55,41.765,55,39c0-2.776-0.72-5.478-2.078-7.875l4.05-3.739l3.83,3.83l1.302-14.321L48,18.178V1H38v15.008l-12-4.444  V21.63l-5-1.6V1H11v15.83l-10-3.2V46h8h15.635c2.603,5.319,8.055,9,14.365,9c2.765,0,5.368-0.706,7.64-1.946l1.919,1.919  l-1.622,1.622l1.414,1.414l1.622-1.622l5.285,5.284C56.114,62.528,57.254,63,58.465,63C60.966,63,63,60.965,63,58.464  C63,57.252,62.528,56.114,61.672,55.257z M59.896,19.104l-0.698,7.679l-2.17-2.17L44.356,36.31  c-0.561-1.113-1.455-2.029-2.554-2.612l12.642-11.669l-2.227-2.226L59.896,19.104z M49,39c0,5.514-4.486,10-10,10s-10-4.486-10-10  s4.486-10,10-10c1.397,0,2.759,0.299,4.018,0.853l-3.441,3.177C39.387,33.011,39.195,33,39,33c-3.309,0-6,2.691-6,6s2.691,6,6,6  s6-2.691,6-6c0-0.181-0.011-0.359-0.027-0.537l3.34-3.083C48.758,36.53,49,37.756,49,39z M43,39c0,2.206-1.794,4-4,4s-4-1.794-4-4  s1.794-4,4-4S43,36.794,43,39z M50.059,20.474L48,19.711v-1.297L50.059,20.474z M46,3v2h-6V3H46z M40,7h6v11.97l-6-2.222V7z   M50.636,22.821l-2.965,2.737C45.088,23.884,42.114,23,39,23c-4.262,0-8.13,1.685-11,4.411V14.437L50.636,22.821z M24.635,32H15v2  h8.811c-0.215,0.65-0.389,1.317-0.519,2H11v-2h2v-2h-2v-2h14.782C25.349,30.633,24.974,31.306,24.635,32z M26,28H9v-2h17V28z M19,3  v2h-6V3H19z M13,7h6v12.39l-6-1.92V7z M3,44V16.37l23,7.36V24H7v6h2v14H3z M11,44v-2h8v-2h-8v-2h12.051  C23.03,38.332,23,38.662,23,39s0.03,0.668,0.051,1H21v2h2.292c0.13,0.683,0.305,1.35,0.519,2H11z M25,39c0-7.72,6.28-14,14-14  c2.549,0,4.988,0.682,7.144,1.968l-1.543,1.424C42.882,27.482,40.968,27,39,27c-6.617,0-12,5.383-12,12s5.383,12,12,12  s12-5.383,12-12c0-1.752-0.405-3.473-1.138-5.05l1.546-1.427C52.449,34.514,53,36.729,53,39c0,7.72-6.28,14-14,14S25,46.72,25,39z   M48.362,51.948c1.377-0.999,2.587-2.209,3.586-3.586l1.611,1.611l-3.586,3.586L48.362,51.948z M58.465,61  c-0.677,0-1.313-0.264-1.793-0.743l-5.285-5.284l3.586-3.586l5.285,5.284C60.736,57.15,61,57.787,61,58.464  C61,59.862,59.862,61,58.465,61z" style="fill:#3F3A34;"/></svg>